# xmcd
#
# Track frame offsets:
#	150
#	33172
#	64831
#	95402
#	113399
#	133768
#	163220
#	186187
#	199337
#	216438
#	238647
#	263004
#
# Disc length: 3870 seconds
# Revision: 0
# Processed by: cddbd v1.5.2PL0 Copyright (c) Steve Scherf et al.
# Submitted via: dBpowerAMP V12.0
#
DISCID=ab0f1c0c
DTITLE=Magic Slim - Born On A Bad Sign
DYEAR=1977
DGENRE=Blues
TTITLE0=Going Down Slow
TTITLE1=Born On A Bad Sign
TTITLE2=Born In Missouri
TTITLE3=Slim's Bump
TTITLE4=Buddy Buddy Friend
TTITLE5=Born Down The Bridge
TTITLE6=Rock Me Baby
TTITLE7=Tell Me Baby [Bonus]
TTITLE8=You Upset Me Baby [Bonus]
TTITLE9=Jumpin' At Ma Bea's [Bonus]
TTITLE10=I Don't Got Over [Bonus]
TTITLE11=Tramp [Bonus]
EXTD=
EXTT0=
EXTT1=
EXTT2=
EXTT3=
EXTT4=
EXTT5=
EXTT6=
EXTT7=
EXTT8=
EXTT9=
EXTT10=
EXTT11=
PLAYORDER=
